<svg width="182" height="156" viewBox="0 0 182 156" fill="#2C7BE5" xmlns="http://www.w3.org/2000/svg">
<path class="st0" d="M134.7,35.7c0-16.7,0-18.3,0-18.3C134.7,11.2,115.1,0,91,0C66.9,0,47.3,11.2,47.3,17.4c0,0,0,1.6,0,18.3
	c0,16.7,30.2,30.5,30.2,42.3c0,11.8-30.2,25.6-30.2,42.3s0,18.3,0,18.3c0,6.1,19.6,17.4,43.7,17.4c24.1,0,43.7-11.2,43.7-17.4
	c0,0,0-1.6,0-18.3S104.4,89.8,104.4,78C104.4,66.2,134.7,52.4,134.7,35.7z M59.3,18.2c5.4-3.4,15.6-8.4,32.1-8.4
	c16.5,0,31.2,8.4,31.2,8.4c1.1,0.7,5.4,3,2.5,4.8c-6.5,3.9-19.3,8-34.1,8s-27.2-4.5-33.7-8.4C54.3,20.7,59.3,18.2,59.3,18.2z
	 M94.9,78c0,9.3,7.8,15.3,16,23.3c6,5.8,14.2,13.8,14.2,19v10.4c-7.6-3.8-30.2-7.4-30.2-19.5c0-6.1-7.9-6.1-7.9,0
	c0,12.1-22.6,15.8-30.2,19.5v-10.4c0-5.2,8.2-13.2,14.2-19c8.2-8,16-14,16-23.3s-7.8-15.3-16-23.3c-6-5.8-14.2-13.8-14.2-19
	l-0.4-7.8c8,4.3,20.7,8.4,34.5,8.4c13.8,0,26.6-4.1,34.6-8.4l-0.4,7.8c0,5.2-8.2,13.2-14.2,19C102.7,62.7,94.9,68.7,94.9,78z"/>
</svg>
